<svg width="133" height="72" viewBox="0 0 133 72" fill="none" xmlns="http://www.w3.org/2000/svg">
<path d="M9.35451 45.9872C10.5434 47.2545 11.5869 48.6798 12.8826 49.8213C14.0787 50.8751 15.4724 51.7404 16.8746 52.5152C18.8621 53.6142 20.9484 54.534 22.9679 55.5769C23.4404 55.8213 23.8109 56.2598 24.2392 56.5954C25.7763 57.7993 27.4973 58.5532 29.4574 58.7516C29.9534 58.8021 30.4347 58.9935 30.9261 59.1017C37.2329 60.4933 43.0803 63.2827 49.2396 65.12C50.9659 65.6348 52.7115 66.1022 54.4707 66.4914C56.9593 67.0432 59.4648 66.7846 61.9719 66.523C63.8262 66.3297 65.7207 66.4341 67.5527 66.1318C70.1739 65.6986 72.7385 64.9384 75.3533 64.4575C78.9767 63.79 82.6289 63.3745 86.3362 63.5316C87.4925 63.5803 88.677 63.3359 89.8221 63.0981C90.4901 62.9597 90.581 62.1091 89.9608 61.7354C88.4455 60.8214 87.1256 59.523 85.2972 59.2012C84.3361 59.0325 83.3509 58.8014 82.3938 58.8662C81.2109 58.946 80.2174 58.7667 79.4161 57.763C80.1771 56.7721 81.2578 56.143 82.5394 55.8045C85.853 54.9309 88.3729 52.8994 90.6793 50.4462C92.8756 48.1093 95.1473 45.7711 98.6615 45.5012C98.8908 45.4839 99.11 45.3607 99.3385 45.3061C100.822 44.9512 102.07 44.9883 103.188 46.3985C104.058 47.4946 105.324 48.3297 106.543 49.0683C107.035 49.3665 107.915 49.2471 108.542 49.0604C110.757 48.4018 112.923 47.5791 115.141 46.9296C116.113 46.6455 117.167 46.6508 118.176 46.4816C119.411 46.2745 119.562 45.3488 119.495 44.3344C119.43 43.3508 119.279 42.5775 117.974 42.3499C115.455 41.9098 113.259 42.7736 111.011 43.6133C110.064 43.9674 109.197 44.6618 108.021 43.9237C107.153 43.3782 106.871 42.7467 107.071 41.8765C107.857 38.4572 109.072 35.1866 110.673 32.0667C110.858 31.7048 111.337 31.3705 111.743 31.2634C115.398 30.2935 118.939 29.0392 122.24 27.1716C122.991 26.7467 123.695 26.2331 124.391 25.7195C124.668 25.5143 125.019 25.2268 125.074 24.9296C125.537 22.421 127.494 20.696 128.427 18.4303C129.226 16.4906 128.812 13.6803 127.113 12.4215C123.837 9.99443 120.542 7.5738 117.105 5.38462C113.412 3.03189 109.409 3.42696 105.377 4.56996C103.12 5.21044 100.81 5.98013 98.5031 6.05575C95.4366 6.15609 92.3521 5.59887 89.2707 5.39313C86.5775 5.21332 83.8776 5.02294 81.1814 5.03251C78.4868 5.0426 75.8455 5.50438 73.2561 6.3591C71.5547 6.92111 69.6977 7.01119 67.9943 7.56892C63.3413 9.09244 58.9421 11.1631 54.8025 13.8212C51.8124 15.7404 49.5142 18.3289 47.3023 21.0076C45.6029 23.0659 43.9427 25.1908 42.5557 27.4633C41.3077 29.5079 40.3786 31.7448 39.4442 33.9834C38.1625 37.0528 37.617 40.2303 36.8585 43.3869C36.5486 44.6775 36.4706 46.0243 36.2879 47.3456C36.2413 47.6814 36.1984 48.0178 36.1206 48.6087C34.5344 47.8496 33.1197 47.3278 31.8872 46.5259C31.1065 46.0175 30.7082 44.9416 29.947 44.3795C27.4787 42.5557 26.4358 39.8145 25.1341 37.2384C24.3251 35.639 23.7223 33.9296 22.8478 32.3703C21.4685 29.9104 20.2436 27.2597 18.3856 25.2014C16.5961 23.2188 14.2278 21.4484 11.1131 22.4044C10.3466 22.6399 9.54425 23.0267 8.97055 23.5681C6.84684 25.5729 5.06836 27.8469 3.66484 30.4414C2.44128 32.7028 2.70523 34.9284 3.50917 37.1374C4.74656 40.5369 6.89833 43.3699 9.35451 45.9872Z" fill="black"/>
</svg>
