<svg width="78" height="78" viewBox="0 0 78 78" fill="none" xmlns="http://www.w3.org/2000/svg">
<path d="M13.1268 18.9611C13.1268 24.9276 15.7865 30.6646 20.4237 34.7009L36.7148 48.8812V46.6823C36.7148 45.4203 37.738 44.3971 39 44.3971C40.262 44.3971 41.2852 45.4203 41.2852 46.6823V48.8838L57.5774 34.7011C62.214 30.6649 64.8731 24.9282 64.8731 18.9621V0.5037C64.7555 0.409399 64.628 0.325458 64.4911 0.254618C63.7316 -0.137515 62.8164 -0.0729211 62.1195 0.422196L51.7562 7.7839C47.6633 6.43018 43.3784 5.74463 39 5.74463C34.5569 5.74463 30.2122 6.44998 26.0662 7.84301L15.9029 0.438192C15.208 -0.068046 14.2876 -0.141323 13.5211 0.248372C13.3796 0.320431 13.2478 0.4062 13.1268 0.503243V18.9611ZM45.1044 27.9155C45.2011 26.964 45.8966 26.159 46.8233 25.9241C47.7448 25.6904 48.7537 26.077 49.2786 26.8706C49.8065 27.6683 49.7832 28.7295 49.2146 29.5002C48.6478 30.2686 47.6283 30.6019 46.7162 30.3257C45.6888 30.0144 44.9956 28.9862 45.1044 27.9155ZM28.3466 27.9155C28.4432 26.9655 29.1385 26.157 30.0652 25.9241C30.9882 25.6919 31.9937 26.0763 32.5208 26.8706C33.0498 27.6677 33.0249 28.7299 32.4568 29.5002C31.89 30.2686 30.869 30.6026 29.9569 30.3257C28.915 30.0093 28.2588 28.9892 28.3466 27.9155Z" fill="black"/>
<path d="M69.4435 17.4521V18.9618C69.4435 26.2504 66.2121 33.2434 60.5781 38.1478L40.502 55.6247C40.0719 55.9992 39.5367 56.1864 39.0015 56.1864C38.4664 56.1864 37.9313 55.9992 37.5013 55.6249L19.7767 40.197C19.3628 44.0451 17.822 47.7202 15.3345 50.7209C12.48 54.1643 8.51481 56.5702 4.1526 57.5118C6.00861 61.0229 8.4618 64.2655 11.4624 67.1242C18.8239 74.1375 28.6035 78 39 78C49.3966 78 59.1763 74.1375 66.5375 67.1241C73.9292 60.0818 78 50.7103 78 40.7355C78 32.2211 74.9362 24.0149 69.4435 17.4521Z" fill="black"/>
<path d="M3.04931 53.0748C10.0417 51.6342 15.1446 45.5159 15.3118 38.4504H2.28516C1.02314 38.4504 0 39.4735 0 40.7355C0 45.116 0.785637 49.3801 2.29232 53.3819C2.51839 53.2391 2.77189 53.1319 3.04931 53.0748Z" fill="black"/>
</svg>
