<svg width="121" height="108" viewBox="0 0 121 108" fill="none" xmlns="http://www.w3.org/2000/svg">
<path d="M113.157 42.5848C113.028 41.7049 112.555 40.9113 111.842 40.3793L104.931 35.2242L103.487 32.0118C101.153 26.8282 96.0112 23.8088 90.7082 23.9171C87.9206 18.3041 81.7622 14.9405 75.362 15.8718C74.0048 16.0693 72.9026 17.0731 72.5819 18.4083C71.402 23.323 69.8115 27.5729 72.5774 33.146L68.998 35.447L55.0022 37.4834C59.6129 29.7034 61.6334 20.5601 60.163 10.4541C59.7338 7.50448 55.9355 6.53765 54.1538 8.93159C48.6569 16.3006 40.6849 20.9174 31.8763 22.1991C21.1867 23.7545 15.887 30.0949 15.5778 30.1399C15.3721 30.3064 15.169 30.5228 15.1252 30.583C8.65445 37.0303 5.2 46.351 6.61349 56.0655L9.07146 72.9583C9.45308 75.5811 10.4472 78.2114 12.0595 80.5173C14.2166 83.6175 14.6337 87.5473 13.1779 91.0291C12.4131 92.86 12.3206 93.0209 12.2449 93.4431C12.0393 94.2995 12.304 95.4905 12.9455 96.219C13.1556 96.4816 12.4752 95.8473 23.0458 105.337C23.7869 106.003 24.7845 106.305 25.7703 106.161L34.0715 104.953C35.906 104.687 37.1757 102.984 36.9088 101.15C36.6418 99.3153 34.9397 98.0456 33.1052 98.3125L26.3584 99.2942L20.4688 94.0054L27.5389 87.2209C28.1528 87.0997 28.756 86.9484 29.3445 86.7695C30.9039 87.5535 32.5947 88.2209 34.3946 88.7643L34.0238 89.6532C33.4738 90.9709 33.8158 92.4915 34.8783 93.4431L44.6289 102.197C45.37 102.862 46.3676 103.164 47.3533 103.021L55.6545 101.813C57.489 101.546 58.7587 99.844 58.4918 98.0095C58.2249 96.1749 56.5228 94.9052 54.6882 95.1721L47.9414 96.1538L41.3036 90.194C49.0026 91.1381 57.5008 90.1936 64.7989 87.8307C68.5542 92.1172 71.5997 94.214 75.4581 97.09C76.1713 97.622 77.0669 97.8498 77.9469 97.7218L88.7384 96.1516C90.5729 95.8846 91.8426 94.1825 91.5757 92.348C91.3088 90.5134 89.6067 89.2437 87.7721 89.5106L81.1312 90.4769L79.2149 77.3071L80.0215 75.4371C85.4212 85.7253 92.3841 90.4756 97.0411 93.9496C97.6493 94.4021 98.3823 94.6116 98.954 94.6143C99.2412 94.6439 98.9731 94.6624 110.321 93.0112C112.156 92.7442 113.426 91.0421 113.159 89.2075C112.892 87.373 111.19 86.1033 109.355 86.3702L101.571 87.5029L94.1636 57.642C97.3622 55.797 100.915 54.5383 104.645 53.9957C110.139 53.1961 113.959 48.1014 113.157 42.5848ZM95.5879 38.3596C95.8548 40.1942 94.5851 41.8963 92.7506 42.1632C85.5167 43.2158 80.9726 50.5985 83.308 57.5198C81.5467 59.2659 79.9659 61.1892 78.5987 63.2552C71.869 52.0062 78.7579 37.4177 91.7843 35.5223C93.6188 35.2553 95.321 36.525 95.5879 38.3596ZM46.2284 24.4171C49.0853 27.2996 51.6455 29.0368 51.6561 29.1098C50.8323 31.2111 49.7945 33.2398 48.547 35.1675C45.5919 32.9909 42.2977 30.2468 39.6931 27.2308C41.946 26.4898 44.1279 25.5514 46.2284 24.4171ZM32.4492 28.9036C34.6771 32.8985 38.4963 37.1682 40.8508 39.5425C34.6571 40.4437 33.0079 40.6822 32.7927 40.7171C30.452 38.0293 27.7398 34.5224 25.9642 30.9704C27.9653 29.9841 30.1407 29.2777 32.4492 28.9036ZM21.3548 33.9701C22.2257 36.8972 24.4253 40.1735 26.3249 42.5377C24.2199 43.4077 22.2339 44.5274 20.4039 45.8745C19.105 44.1858 17.6251 42.0255 16.443 39.6544C17.759 37.5132 19.4181 35.5892 21.3548 33.9701Z" fill="black"/>
</svg>
