<svg width="107" height="141" viewBox="0 0 107 141" fill="none" xmlns="http://www.w3.org/2000/svg">
<path d="M25.2019 76.9441C25.2019 76.9441 19.4512 83.7851 26.2579 96.1884C27.0688 99.5864 25.8794 103.133 24.2608 104.081C22.6357 105.028 20.4337 120.536 30.5225 139.1L38.4248 137.749C38.4248 137.749 30.8782 127.698 31.9305 116.365C32.9748 105.043 44.2469 91.4208 44.2469 91.4208C50.8788 93.6308 55.307 91.4151 62.9349 89.0012C65.8893 94.5138 70.3888 98.6256 71.3916 100.584C72.3966 102.538 72.6513 111.863 85.5229 129.699L94.2591 128.206C94.2591 128.206 76.6802 107.67 81.8081 86.694C82.6601 85.1872 91.671 76.5088 89.3381 62.8593C88.4727 52.5321 74.2179 44.2637 75.8612 38.8621C76.4297 36.9752 77.8382 36.065 82.2935 35.973C86.7423 35.8821 90.4964 34.3542 90.523 31.8905C90.5532 29.4362 89.4302 29.4061 85.1185 29.0261C81.3108 28.6906 79.4562 25.5817 71.5296 26.0059C71.921 25.0981 72.2212 23.9949 72.3398 22.5861C72.4792 20.9743 71.2846 19.5593 69.6668 19.4254C68.0598 19.2926 66.6413 20.4882 66.4991 22.0951C66.4009 23.344 66.1476 23.801 66.1722 23.8603C64.9321 24.0193 61.4998 21.68 58.1967 18.5784C59.7717 17.0281 60.9302 14.6815 61.6454 11.5495C62.0017 9.97628 61.0144 8.41114 59.4369 8.05513C57.8593 7.69623 56.2941 8.68041 55.9323 10.2584C55.5725 11.8395 54.7438 14.5439 53.2409 14.9188C50.8759 15.4766 45.9912 11.6199 43.3934 8.58891C42.3425 7.35976 40.5032 7.21416 39.265 8.26238C38.0327 9.31105 37.8882 11.1529 38.9394 12.3806C40.1835 13.8421 46.0496 20.3251 52.0818 20.779C54.6845 23.537 63.2803 29.4754 63.548 29.9098C62.5873 30.2898 61.4102 30.5608 60.4526 30.1855C58.4971 29.3994 53.0372 30.3885 53.1678 32.3351C53.2996 34.2916 57.5397 34.2243 60.2653 34.111C61.2748 34.1466 62.2303 33.7419 62.9855 33.9606L62.992 33.9166C63.0755 35.1614 63.3605 36.5889 63.9124 38.2265C66.6258 46.238 73.4957 53.7559 69.9658 59.2656C66.4423 64.7733 52.5237 65.5902 42.0214 65.5993C31.5265 65.6115 11.4792 71.6026 10.9236 78.4679C12.0916 81.3873 18.3109 82.3573 25.2019 76.9441Z" fill="black"/>
</svg>
