<svg width="120" height="120" viewBox="0 0 120 120" fill="none" xmlns="http://www.w3.org/2000/svg">
<path d="M70.776 109.068C75.9951 104.566 82.6623 102.097 89.5548 102.113H89.5703C93.3698 102.101 97.1337 102.844 100.644 104.298C104.155 105.752 107.342 107.888 110.021 110.582L119.439 120C121.425 102.88 118.005 85.5672 109.658 70.4879L109.505 70.2145L108.445 71.2837C103.015 76.686 95.6679 79.7188 88.0088 79.7188C80.3496 79.7188 73.0021 76.686 67.5729 71.2837C67.3662 71.0773 67.2022 70.8321 67.0904 70.5623C66.9785 70.2924 66.9209 70.0031 66.9209 69.711C66.9209 69.4189 66.9785 69.1297 67.0904 68.8598C67.2022 68.59 67.3662 68.3448 67.5729 68.1384L77.2201 58.4911H77.1756C73.3061 57.7198 69.752 55.8191 66.962 53.0291C64.172 50.2391 62.2713 46.685 61.5 42.8155V42.771L51.8528 52.4183C51.436 52.8351 50.8707 53.0694 50.2812 53.0696C49.9889 53.0698 49.6995 53.0124 49.4295 52.9006C49.1594 52.7889 48.914 52.6249 48.7074 52.4183C43.3076 46.989 40.2765 39.643 40.2765 31.9857C40.2765 24.3284 43.3076 16.9824 48.7074 11.5531L49.7855 10.4861L49.5032 10.3283C34.4253 1.98695 17.1172 -1.43271 0 0.547706L9.41828 9.96598C12.1127 12.6449 14.2487 15.8319 15.7025 19.3423C17.1563 22.8528 17.8989 26.6168 17.8874 30.4163C17.9034 37.3088 15.434 43.976 10.932 49.1951C16.8567 55.1017 20.8877 62.6393 22.5109 70.8463C24.1341 79.0533 23.2759 87.5578 20.0458 95.2751L16.6804 103.306L24.696 99.972C32.4117 96.74 40.9151 95.8791 49.1219 97.4991C57.3288 99.1191 64.8672 103.147 70.776 109.068Z" fill="black"/>
</svg>
