<svg width="156" height="91" viewBox="0 0 156 91" fill="none" xmlns="http://www.w3.org/2000/svg">
<path d="M153.669 36.5044C153.126 36.0876 151.733 36.6489 149.84 38.8396C147.163 41.9398 144.002 42.8145 140.451 41.4419C137.562 40.3257 134.76 37.9073 131.793 35.3473C130.755 34.4514 129.681 33.5253 128.612 32.6664C126.944 31.3193 125.019 30.3249 122.955 29.7434C120.891 29.1619 118.73 29.0054 116.604 29.2833C115.434 29.4461 114.245 29.1906 113.245 28.562C111.006 27.1498 104.987 23.9939 97.4831 25.2249C91.427 26.2182 85.8316 25.5707 82.0875 24.8112C80.394 24.4706 78.6523 24.4448 76.9494 24.7352L76.7237 24.7733C76.6674 24.023 76.5709 23.2764 76.4349 22.5365C76.4224 22.4919 76.4156 22.4459 76.4073 22.3999C75.5588 18.1495 73.509 17.7722 70.6089 17.2448C68.7089 16.8995 66.5545 16.5072 64.6305 14.9392C62.2531 13.0012 56.2514 10.6172 47.7306 8.22775C42.8147 6.8488 39.2886 6.98879 36.9436 8.65296C34.7751 10.192 34.7176 10.2885 34.1644 11.214C33.9045 11.646 33.5525 12.2382 32.9475 13.1097C31.3228 15.4538 30.8173 15.7816 28.7175 16.5743L28.6608 16.5957C28.2245 16.7601 27.4811 17.1522 27.3997 17.927C27.3227 18.661 27.8602 19.8428 29.5996 20.9584C30.3447 21.4361 30.4364 22.2384 30.5031 22.8241L30.5039 22.8299C30.5151 22.9312 30.548 23.029 30.6003 23.1164C30.6526 23.2039 30.7231 23.2792 30.807 23.3371C30.8909 23.3949 30.9863 23.4341 31.0867 23.4519C31.187 23.4697 31.2901 23.4657 31.3888 23.4403C31.7646 23.3365 32.1324 23.2054 32.4891 23.0479C34.407 22.2266 37.5131 22.6468 40.4013 24.1217C43.4657 25.6866 45.4829 28.0138 46.0817 30.6746C46.4121 32.1544 46.667 33.6499 46.8452 35.1556C47.0708 36.9097 47.1848 37.792 48.0882 39.0224C50.5078 30.6167 56.7006 22.7869 57.0244 22.3842C57.1489 22.2283 57.3029 22.0984 57.4777 22.002C57.6524 21.9057 57.8444 21.8446 58.0427 21.8224C58.241 21.8002 58.4417 21.8173 58.6334 21.8727C58.8251 21.9281 59.0041 22.0207 59.16 22.1453C59.3159 22.2698 59.4457 22.4238 59.5421 22.5986C59.6385 22.7733 59.6996 22.9653 59.7217 23.1636C59.7439 23.3619 59.7268 23.5626 59.6714 23.7543C59.6161 23.946 59.5234 24.1249 59.3989 24.2809C59.3089 24.3955 50.2853 35.8068 50.1704 45.0112C50.1668 45.2964 50.0831 45.5748 49.9287 45.8146C49.7744 46.0544 49.5557 46.2459 49.2977 46.3672L24.2411 58.1473C23.5343 58.4788 22.7379 58.5679 21.9753 58.4008C20.818 58.1445 17.8676 57.6769 15.4522 58.8632C15.3621 58.9076 15.2877 58.9783 15.2387 59.0659C15.1897 59.1535 15.1685 59.2539 15.1779 59.3539C15.1872 59.4538 15.2268 59.5485 15.2912 59.6255C15.3556 59.7025 15.4419 59.7581 15.5386 59.7849L23.8513 62.1301C23.9673 62.1631 24.0914 62.1527 24.2002 62.1006C27.4779 60.526 35.622 56.8591 40.4593 56.8145C44.7923 56.7746 54.9393 56.6806 59.8429 45.7269C60.7057 43.7708 61.7808 41.9154 63.0488 40.1941L64.5278 38.2125C64.7534 37.8996 65.0867 37.6811 65.4636 37.5991C65.8405 37.5171 66.2345 37.5773 66.5697 37.7682C66.7513 37.8778 66.908 38.0242 67.0296 38.198C67.1512 38.3718 67.2351 38.5691 67.2759 38.7773C67.3166 38.9855 67.3133 39.1999 67.2662 39.4067C67.219 39.6135 67.1291 39.8082 67.0022 39.9782L65.4833 42.0114C64.3489 43.5538 63.3872 45.2161 62.6155 46.9684C62.552 47.1094 62.4834 47.2429 62.4181 47.382C65.841 48.7122 74.9768 51.4782 83.5637 47.2656C87.894 45.0945 92.6909 44.0189 97.5338 44.1331C98.9801 44.2044 100.418 44.3937 101.834 44.6991C100.602 43.087 99.6884 42.1008 99.6635 42.0742C99.3928 41.7794 99.2495 41.3896 99.2645 40.9897C99.2795 40.5897 99.4518 40.2118 99.7438 39.9381C100.036 39.6644 100.424 39.517 100.824 39.5279C101.224 39.5387 101.604 39.7071 101.881 39.9962C102.18 40.316 109.243 47.9245 111.165 56.4363C112.011 60.1894 115.395 60.0945 120.865 59.4933C123.661 59.1858 126.303 58.8962 128.306 59.6903C130.849 60.6989 131.912 63.3829 132.94 65.979C134.134 68.9932 135.369 72.1103 138.803 73.2951C139.695 73.6252 140.674 73.634 141.572 73.32C142.119 73.1125 142.433 72.8477 142.504 72.533C142.59 72.1588 142.609 70.664 139.264 67.149C136.211 63.939 135.46 60.6244 134.909 58.204C134.605 56.8663 134.345 55.7113 133.844 55.4273C133.469 55.2145 132.328 55.1179 131.41 55.0406C129.098 54.845 125.934 54.5773 124.101 52.28C122.902 50.7767 122.486 48.6467 122.865 45.9491C123.269 43.149 122.818 40.2922 121.57 37.7529C121.363 37.3303 121.295 36.8531 121.375 36.3893C121.455 35.9255 121.679 35.4987 122.015 35.1696C122.358 34.8435 122.792 34.6287 123.259 34.5533C123.726 34.4779 124.205 34.5455 124.634 34.7473C126.634 35.6473 129.709 37.4876 133.171 41.1739C136.355 44.5623 139.758 46.143 143.291 45.8702C148.797 45.4443 153.117 40.6838 153.972 39.4318C154.503 38.6571 154.332 37.015 153.669 36.5044ZM50.0014 20.5487C49.6779 20.789 49.2722 20.891 48.8735 20.8322C48.4748 20.7735 48.1158 20.5587 47.8755 20.2352C47.6351 19.9117 47.5331 19.506 47.5919 19.1073C47.6507 18.7087 47.8654 18.3496 48.1889 18.1093C51.4595 15.678 51.3198 14.6501 51.317 14.6407C51.1452 14.092 48.9236 13.3573 46.5742 13.2817C46.1713 13.2694 45.7899 13.0975 45.5138 12.804C45.2376 12.5104 45.0894 12.1192 45.1018 11.7164C45.1141 11.3135 45.2859 10.9321 45.5795 10.656C45.873 10.3798 46.2642 10.2316 46.6671 10.2439C48.1957 10.2899 53.2572 10.6775 54.2162 13.7294C55.0581 16.4098 52.2149 18.9054 50.0013 20.5493L50.0014 20.5487Z" fill="black"/>
<path d="M106.689 52.6816C106.085 51.3428 105.398 50.0428 104.633 48.789C103.296 48.0309 100.022 47.2771 97.5191 47.1768C98.6223 49.2627 101.182 52.3879 106.689 52.6816Z" fill="black"/>
<path d="M44.4777 38.7038C44.1436 37.6777 43.9262 36.6172 43.8296 35.5424C43.6628 34.1304 43.4244 32.7278 43.1156 31.3399C43.0798 31.1865 43.0362 31.035 42.9847 30.886C39.9152 31.7155 31.7074 33.8665 25.7766 34.7973C20.1773 35.6763 20.1773 35.6763 11.2982 38.6304C6.69152 40.1631 4.12783 42.9161 2.78812 44.9554C2.72289 45.0518 2.68597 45.1646 2.68155 45.2809C2.67713 45.3972 2.70538 45.5124 2.76311 45.6135C2.82036 45.7232 2.90665 45.815 3.01255 45.879C3.11845 45.943 3.23989 45.9766 3.36361 45.9763L8.23568 45.9991C8.50905 45.9987 8.77578 45.9148 9.00021 45.7587C10.1553 44.9685 20.6259 38.0914 32.3368 39.8693C38.702 40.8371 42.6694 39.7417 44.4777 38.7038Z" fill="black"/>
<path d="M126.405 66.6487C126.363 66.7666 126.358 66.8947 126.391 67.0155C126.425 67.1362 126.494 67.2438 126.591 67.3234C126.688 67.4031 126.807 67.4509 126.932 67.4603C127.056 67.4698 127.181 67.4404 127.289 67.3762C128.079 66.9095 128.908 66.4447 129.687 66.0335C128.986 64.3294 128.285 62.953 127.187 62.517C126.701 62.3457 126.192 62.2513 125.677 62.2371C126.518 63.4598 127.097 64.9762 126.467 66.4805C126.446 66.5353 126.426 66.591 126.405 66.6487Z" fill="black"/>
</svg>
