<svg width="71" height="93" viewBox="0 0 71 93" fill="none" xmlns="http://www.w3.org/2000/svg">
<path d="M70.3158 17.6983C70.056 17.3216 69.7215 16.9969 69.4415 16.674C69.7585 15.9733 70.2464 16.3434 70.7139 16.4811C70.797 16.3116 70.8717 16.1595 70.9503 16.0005C70.3475 15.8076 69.7863 15.6407 69.2344 15.4472C68.644 15.2399 68.1308 14.9185 67.7457 14.4033C67.5968 14.2045 67.4052 13.9441 67.1949 13.9019C66.0602 13.6733 64.9067 13.4576 63.7513 13.6623C63.2804 13.7454 62.7204 13.9325 62.4281 14.2696C62.0682 14.684 61.7396 15.1191 61.3246 15.4893C60.9946 15.6471 60.6907 15.855 60.4244 16.1051C60.3991 16.0713 60.3738 16.0376 60.3478 16.0038C60.1822 15.7915 59.9958 15.5148 59.9958 15.2679C59.9958 14.2306 59.358 13.7903 58.5332 13.7209C57.9033 13.6677 57.2473 13.7074 56.6497 13.5385C56.0592 13.3708 55.843 13.734 55.5455 14.0399C55.4494 14.1386 55.3929 14.275 55.3129 14.4011C54.6797 13.9933 54.0496 13.5821 53.4138 13.1793C52.6349 12.6857 51.9582 12.0921 51.7342 11.1595C51.6368 10.7522 51.397 10.6003 51.0529 10.5139C49.776 10.1944 48.501 9.86564 47.2189 9.56939C46.6097 9.4285 46.7616 9.33299 46.4305 9.96625C46.4075 10.0097 46.3921 10.0565 46.3902 10.063C45.4341 9.66554 44.4014 9.62526 43.4662 9.36228C43.3694 8.76213 43.3057 8.18539 43.179 7.62233C42.7912 5.89464 41.8522 4.53978 40.3459 3.59865C39.0749 2.80429 37.7798 2.04766 36.5198 1.23707C36.0151 0.912318 35.5713 0.497946 34.9511 0.387628C34.4095 0.29084 33.8731 0.160304 33.3288 0.0778439C32.9657 0.022605 32.5948 0.0246744 32.2122 0V0.578019C32.3363 0.631188 32.4506 0.68006 32.6066 0.746919C32.4948 0.874908 32.4202 1.03792 32.3014 1.08265C31.6323 1.33529 30.9594 1.58139 30.2762 1.78993C28.9304 2.19985 27.5645 2.55245 26.3084 3.20975C24.9373 3.92674 23.9318 4.95877 23.5428 6.49877C23.505 6.64761 23.5797 6.83068 23.622 6.99242C23.7013 7.29647 23.8903 7.60498 23.865 7.89725C23.7975 8.67474 23.6357 9.44299 23.5213 10.2173C23.4675 10.5829 23.4369 10.9526 23.3855 11.4138C23.6927 11.1527 23.8842 10.9532 24.1117 10.8103C24.254 10.7213 24.4533 10.6823 24.6202 10.6979C24.6735 10.7031 24.7488 10.9602 24.7359 11.0941C24.68 11.6559 24.6079 12.2164 24.5143 12.7729C24.4124 13.3802 24.5143 13.6375 25.0138 13.9766C25.1281 14.0546 25.2905 14.211 25.2717 14.2973C25.2464 14.4143 25.0684 14.4981 24.9035 14.641C25.0041 14.9158 25.0931 15.2808 25.2627 15.6035C26.2531 17.4857 27.5658 19.1173 29.2383 20.4325C29.7325 20.8209 30.0046 21.2535 30.0495 21.8776C29.7209 21.803 29.415 21.7231 29.1039 21.6672C28.8909 21.6282 28.6902 21.5913 28.5499 21.8686C28.2661 22.4278 27.9044 22.9474 27.6316 23.5104C26.7098 25.414 25.9825 27.3944 25.3727 29.4175C25.2908 29.6897 25.2025 29.9592 25.1129 30.2281L24.0802 31.3088C24.1088 31.114 24.1236 30.9113 24.1017 30.6891C23.936 30.873 23.8256 30.9814 23.7314 31.1022C23.0307 32.0024 22.1408 32.6903 21.1613 33.2409C19.7845 34.0159 18.3587 34.7023 16.9733 35.4635C16.2848 35.8416 15.6412 36.3014 14.9696 36.7288C15.1022 36.8939 15.1956 37.0101 15.2469 37.1035C11.9085 38.5805 8.88631 40.7401 6.45802 43.4835C3.54373 46.7765 1.37381 50.7948 0.507343 55.1251C-0.271414 59.0168 -0.149953 63.0216 0.846258 66.8646C1.43399 69.13 2.34662 71.2889 3.52877 73.2926C3.75147 73.7597 3.96654 74.2112 4.19195 74.6566C4.22777 74.7273 4.35178 74.7546 4.43679 74.7989C4.45955 74.8105 4.48423 74.821 4.51017 74.8307C4.74593 75.1743 4.99013 75.5119 5.24213 75.8445C5.29737 75.9537 5.34927 76.064 5.39352 76.177C5.50591 76.4623 5.62864 76.6156 5.83193 76.5941C5.87411 76.646 5.9163 76.6972 5.95912 76.7493C6.27798 77.2995 6.53396 77.8503 6.91649 78.2899C8.18746 79.7515 9.84829 80.588 11.6884 81.1302C12.4412 81.3524 13.3108 81.3394 13.8623 82.0597C13.961 82.189 14.1104 82.2843 14.2494 82.3759C15.1159 82.9469 15.9733 83.5333 16.8605 84.0706C17.0059 84.159 17.1573 84.2395 17.3125 84.3167C18.2037 85.1493 19.1843 85.8768 20.2568 86.3945C20.2671 86.4497 20.2775 86.5049 20.2861 86.5615C20.2983 86.6407 20.4223 86.7439 20.5108 86.7628C21.1603 86.9051 21.8098 87.0654 22.4678 87.1506C23.3634 87.2657 24.2661 87.3254 25.1671 87.3954C25.6172 87.4306 25.9348 87.5721 25.9687 88.0951C25.9822 88.3047 26.0707 88.5206 26.17 88.7094C26.239 88.8406 26.3708 89.0004 26.4994 89.0278C27.0125 89.1362 27.5333 89.2277 28.0561 89.2712C29.2298 89.3692 30.408 89.4076 31.5796 89.5238C32.4558 89.6109 33.2793 89.885 33.9807 90.4599C34.2567 90.6859 34.5445 90.9158 34.8634 91.067C35.4401 91.3418 36.0468 91.5543 36.6366 91.8036C36.9647 91.9426 37.2783 92.0788 37.6575 92.0309C38.2713 91.953 38.8909 91.9134 39.5087 91.8692C40.3348 91.8101 41.1624 91.766 41.9884 91.7022C42.0663 91.6964 42.1656 91.6138 42.2059 91.5398C42.289 91.3851 42.3391 91.213 42.3657 91.1429C41.6422 90.5351 40.9699 89.9388 40.2607 89.3899C39.9995 89.1873 39.6522 89.0956 39.2625 88.9152C39.2443 88.8035 39.2099 88.5878 39.1696 88.3379C39.4509 88.3379 39.6627 88.3117 39.8652 88.3429C40.3582 88.4178 40.7499 88.6527 41.0186 89.0958C41.1283 89.2764 41.2902 89.4652 41.4752 89.551C42.0779 89.8323 42.6995 90.0752 43.3191 90.3201C44.2707 90.6967 45.2644 90.8819 46.2842 90.9156C46.4002 90.9194 46.6161 90.8005 46.6245 90.7227C46.6686 90.2908 46.7188 89.8465 46.6621 89.4203C46.5615 88.6605 46.0717 88.0785 45.6592 87.4607C45.2697 86.8776 44.9234 86.2657 44.5721 85.6579C44.5363 85.5968 44.5805 85.411 44.6187 85.4006C44.7305 85.3707 44.8897 85.3572 44.9736 85.417C45.1164 85.5189 45.2235 85.6762 45.334 85.819C46.0134 86.6984 47.3162 87.0946 48.3549 86.731C48.3874 86.7198 48.4081 86.677 48.453 86.6282C48.2374 86.1872 48.054 85.7163 47.7919 85.296C47.2839 84.4824 46.7552 83.6788 46.1914 82.9034C45.5782 82.0604 44.7357 81.4889 43.7707 81.1186C42.2516 80.5368 40.7096 80.6789 39.1833 81.0821C38.7023 81.2095 38.228 81.3556 37.7584 81.5154C38.4151 80.7822 39.0199 80.0035 39.5654 79.1857C40.2674 78.5518 40.9508 77.8963 41.6172 77.2256C42.4733 76.3644 43.1631 75.3707 43.7476 74.3029C43.8586 74.0996 44.0826 73.9581 44.255 73.7879C44.2959 73.8151 44.3374 73.8425 44.379 73.8697C44.4802 73.3176 44.6459 72.7683 44.6698 72.2122C44.7232 70.971 44.7101 69.7285 44.5783 68.4945C44.8446 68.2899 45.1044 68.0776 45.359 67.8587C45.4005 68.0919 45.4421 68.325 45.4869 68.5601C45.7689 68.5386 45.9281 68.5873 45.9507 68.9258C45.9753 69.2874 46.1078 69.648 46.2261 69.9974C46.6274 71.1847 47.4034 72.1232 48.2323 73.0351C48.8033 73.6631 49.3261 74.336 49.8523 75.003C50.3453 75.6278 50.5653 76.4669 51.3558 76.8606C51.6051 76.9846 51.8246 77.1743 52.0422 77.3536C52.4482 77.6874 52.8703 77.9907 52.8547 78.6298C52.8469 78.9436 53.0112 79.2698 53.1335 79.5762C53.4496 80.3725 53.7784 81.1643 54.1206 81.9494C54.1765 82.0774 54.3167 82.1734 54.4298 82.2695C54.759 82.5489 55.1604 82.771 55.4124 83.1069C55.7748 83.59 55.9417 83.7304 56.5178 83.6212C56.7055 83.5854 56.8913 83.4784 57.0731 83.488C57.4381 83.5082 57.5271 83.2769 57.6252 83.0099C57.8274 82.4579 58.0176 81.8999 58.2597 81.3655C58.5572 80.7095 58.747 80.69 59.3236 81.1264C60.2244 81.8077 61.1352 82.4762 62.0457 83.1438C62.1615 83.2282 62.3055 83.2743 62.4525 83.3452C62.6115 82.1579 62.3816 81.0656 62.0822 80.0186C62.5492 79.712 62.8012 79.9945 63.0649 80.2473C63.715 80.8701 64.4796 81.1351 65.3718 81.0143C65.4869 80.2849 65.2343 79.7191 64.6561 79.2263C64.2755 78.9022 63.8664 78.5631 63.6243 78.1422C63.4385 77.8194 63.3312 77.661 62.9241 77.642C61.7129 77.5855 60.5054 77.4348 59.2948 77.3582C59.0069 77.34 58.7952 77.2745 58.6263 77.0522C58.5335 76.9295 58.4355 76.8106 58.342 76.6886C57.6704 75.8118 57.2929 74.8323 57.1567 73.7828C57.5476 73.9477 57.9089 74.1932 58.2446 74.5245C58.2815 74.6354 58.3317 74.7427 58.3934 74.846C58.6273 75.2376 58.9609 75.5767 59.2831 75.908C59.723 76.3601 59.7924 76.3536 60.1724 76.1579C60.3107 76.171 60.449 76.1617 60.5802 76.1262C60.9432 76.0261 61.1939 75.7846 61.3246 75.4812C61.5233 75.2954 61.6824 75.1364 61.8617 75.0059C62.6222 74.4498 63.4673 74.5537 64.3096 74.7389C65.2878 74.9532 66.262 75.1876 67.2382 75.4137C67.2745 75.3819 67.3108 75.3494 67.3472 75.3175C66.8791 73.892 66.4107 72.4669 65.9346 71.0178C66.6627 70.9206 67.3493 70.8289 68.0644 70.7334C67.7468 69.6462 66.9822 69.0103 65.9769 68.6453C64.9689 68.2796 63.935 67.9867 62.9237 67.6288C62.0644 67.3249 61.27 66.911 60.8063 66.0602C60.7705 65.9952 60.6952 65.9518 60.6184 65.8797C60.6178 65.894 60.6178 65.9062 60.6172 65.9206C60.2294 65.3575 59.8898 64.7658 59.5988 64.1462C59.3344 63.4377 59.1357 62.7095 59.0039 61.9645C58.9968 61.8892 58.9883 61.8152 58.9786 61.7418C58.9923 61.738 59.0066 61.7347 59.0202 61.7308C58.9495 60.7884 58.9098 59.8428 58.7979 58.9055C58.683 57.9393 58.559 56.9668 58.3285 56.0237C57.892 54.2383 57.3783 52.4717 56.8931 50.6979C56.8203 50.4322 56.7547 50.1633 56.4064 50.0977C56.3064 50.0788 56.205 49.9463 56.1481 49.8417C55.3179 48.32 54.5138 46.7834 53.6637 45.2727C53.1045 44.2788 52.4946 43.3027 51.6314 42.5389C51.5198 42.2291 51.3658 41.9343 51.1723 41.6653C51.5269 41.5647 51.88 41.4574 52.2341 41.3548C52.5166 41.2737 52.6491 41.1398 52.6971 40.8464C52.7361 40.61 52.7661 40.3184 53.0889 40.2494C54.7184 39.9026 56.2784 39.3389 57.8366 38.7613C58.484 38.5217 58.9173 38.2217 59.1889 37.5066C59.659 36.2679 60.4339 35.1775 61.7238 34.6463C62.1935 34.4527 62.4103 34.1786 62.498 33.7266C62.5123 33.652 62.548 33.5818 62.5734 33.509C62.8052 32.8458 63.1962 32.3627 63.9477 32.3068C63.977 32.19 64.0011 32.0917 64.0264 31.9937C64.2946 30.9578 64.3484 29.9237 64.1561 28.8586C64.0899 28.4942 64.0003 28.1376 63.8969 27.7869C64.1859 27.629 64.4751 27.4713 64.7641 27.3141C64.7951 27.3823 64.8265 27.4512 64.8583 27.5206C65.3817 27.0666 65.9585 27.0647 66.5126 26.9835C67.0432 26.9061 67.6018 26.8854 67.9668 26.4055C68.0805 26.2562 68.1245 26.0514 68.2441 25.9086C68.8656 25.1657 69.5068 24.4388 70.131 23.6977C70.8883 22.7993 71.1734 21.7732 70.887 20.6223C70.7539 20.0879 70.5654 19.5668 70.394 19.0141C70.5869 18.9934 70.7693 18.9739 71 18.9492C70.7576 18.4996 70.5743 18.073 70.3158 17.6983Z" fill="black"/>
</svg>
