<svg width="137" height="87" viewBox="0 0 137 87" fill="none" xmlns="http://www.w3.org/2000/svg">
<path d="M83.2865 12.9851C83.4988 13.0785 83.6878 13.0682 83.8853 12.9725C84.7156 12.57 84.8885 13.0017 85.3497 12.5448C87.4014 10.5122 92.9647 7.78659 95.9014 9.54567C97.716 10.6326 96.4408 10.1263 97.5917 10.7087C97.8005 10.8144 98.8902 11.2106 98.7516 11.5613C99.0946 11.4986 99.4376 11.4359 99.7806 11.3732C99.7225 11.5584 99.6645 11.7437 99.6065 11.929C101.603 10.5508 101.67 14.133 112.254 15.3991C112.552 15.6152 112.914 15.6949 113.253 15.67C113.717 15.6358 114.155 15.77 114.608 15.7757C115.099 15.7819 115.018 16.0353 115.456 16.0176C115.965 15.9969 120.632 17.8426 123.845 21.2987C127.14 24.8442 125.284 23.5454 128.095 22.7937C128.374 22.719 129.371 21.9918 129.7 21.4234C129.908 21.0634 130.844 20.7981 130.831 21.5442C130.819 22.291 130.337 24.5921 128.908 25.7718C128.321 26.2569 128.817 26.5475 128.765 27.4032C128.718 28.1907 129.375 28.1739 129.114 28.5298C128.374 29.5426 128.436 29.426 127.15 28.9638C125.873 28.5047 129.196 32.2981 129.574 35.5605C129.713 36.7534 130.333 38.57 130.456 39.619C130.667 41.4313 131.39 43.0124 132.144 44.7484C132.8 46.2597 133.452 49.4676 133.536 49.693C133.791 50.3824 133.665 51.0894 133.61 51.7804C133.542 52.6366 132.958 52.7441 131.978 54.1589C131.412 54.9765 130.734 55.5561 129.733 55.4534C128.996 55.3778 129.293 56.3781 127.951 56.1812C123.027 55.459 125.764 53.394 123.41 51.8997C122.893 51.5717 122.906 51.111 121.347 49.5142C119.571 47.6948 119.425 47.4127 118.996 46.7216C118.697 46.2383 118.255 46.5065 117.247 45.2327C116.333 44.0774 115.103 42.4863 114.874 40.7391C114.735 39.6737 114.862 39.7856 114.674 39.5712C112.809 37.4511 109.767 36.4835 109.653 36.4363C108.571 35.9882 108.116 36.21 107.793 35.8305C107.2 35.1348 97.4142 35.8567 96.3616 35.3127C96.2786 35.2698 96.1736 35.3024 96.099 35.3527C95.3339 35.8688 94.0489 35.1088 93.6382 35.8339C93.377 36.2951 92.9325 36.5482 92.5734 36.8967C92.4092 37.0561 90.6991 39.8776 90.6661 39.9323C89.7814 41.3973 89.0026 41.4075 88.164 42.0987C87.5688 42.5893 87.6583 42.696 87.4737 43.8781L87.2375 44.9392C86.6981 45.6912 86.3004 49.4057 86.0264 49.8928C86.0264 49.8928 85.4696 54.7427 85.547 54.4129C85.0995 56.3195 85.8497 56.3894 85.1591 58.5372C84.6597 60.0902 85.1693 62.3644 85.6125 65.0073C85.7467 65.8077 85.9345 65.8989 86.4693 67.261C86.7925 68.0842 87.6169 68.3751 88.5558 68.9037C89.3791 69.3672 89.8712 69.9684 89.865 70.0919C89.8476 70.4355 90.3862 71.099 90.4393 71.1191C91.043 71.3479 90.8907 71.812 92.0375 72.249C92.4946 72.4232 92.587 72.889 92.421 73.0382C92.3305 73.1196 92.3046 73.2395 92.2524 73.3436C91.2895 75.2617 89.0126 75.1137 87.1584 75.1597C86.677 75.1716 86.1341 75.1595 85.8025 74.8108C85.4012 74.3887 85.0265 72.4496 85.2139 71.8972C85.4819 71.1069 84.5324 70.3496 83.7841 69.9194C83.1284 69.5425 81.4084 70.3408 81.708 66.648C81.8729 64.6164 81.2765 59.6646 81.2708 59.6121C81.1219 58.238 80.3437 57.7549 79.9927 56.2487C79.9927 56.2487 79.8269 52.9481 78.311 46.6457C78.2282 46.3019 77.0527 43.6891 76.7703 45.0309C76.2813 47.3518 75.0933 49.6603 74.0762 51.7901C73.8083 52.351 74.0361 52.3013 73.5137 53.6526C72.6851 55.7963 72.2493 55.6287 71.667 57.0698C71.5044 57.4721 70.4964 58.1479 70.0509 58.3853C68.8903 59.0037 66.1675 63.0096 66.1239 63.1111C65.9602 63.4919 65.8557 63.8825 65.4346 64.0669C64.1721 66.7703 63.1451 66.0604 62.8508 68.1596C62.5658 70.1914 61.8495 69.7137 61.9288 70.4821C62.0401 71.5602 61.9662 71.8773 62.2449 72.5871C62.7576 73.8926 59.6864 73.0421 59.2657 72.7311C56.6568 70.803 56.2877 67.8679 56.7507 67.9784C57.0934 68.0602 57.711 67.4624 58.2492 67.314C58.4964 67.2458 59.5227 66.7622 59.9696 66.4401C60.6258 65.967 60.5318 64.5432 60.4727 64.2261C60.3486 63.5599 61.261 63.2787 61.374 63.1921C61.9775 62.73 61.15 62.8776 62.0911 62.1257C62.7922 61.5655 63.4857 61.0001 64.0491 60.2951C64.1511 60.1674 64.2609 60.0719 64.4273 60.0424C64.8334 59.9702 64.7555 59.8888 66.9192 57.185C67.0983 56.9612 67.1578 56.8025 67.0994 55.6077C67.0502 54.6014 67.8217 55.0506 68.1288 53.0627C68.2535 52.255 68.3201 52.8084 68.3551 51.8068C68.6046 44.6809 68.8828 45.3215 68.0005 45.0365C67.7126 44.9436 67.4686 44.9484 67.1785 45.0709C66.7244 45.2625 64.9861 45.8593 64.9216 45.9392C64.532 46.421 63.7989 46.3586 63.2546 46.4967C62.2379 46.7548 60.0874 47.7532 55.8827 48.1449C46.5106 49.0181 44.3063 46.7735 39.2277 43.5786C39.15 43.5298 38.3655 42.712 38.343 43.2876C38.341 43.3385 37.4752 46.0357 37.7545 49.8339C37.7919 50.3417 37.8762 51.4183 37.7818 51.8937C37.7259 52.1747 37.6766 52.4534 37.713 52.745C37.81 53.5215 37.4178 54.4033 37.3867 55.1929C37.3257 56.7379 37.8142 58.2231 37.9431 59.756C38.1707 62.4604 41.4129 64.801 42.3794 65.8181C46.1089 69.7427 46.1705 69.8539 46.7502 70.2521C46.9881 70.4156 48.4871 71.0163 48.5156 71.2558C48.7847 71.409 49.2444 71.7524 49.2372 72.0695C49.2166 73.0063 51.6112 73.9148 51.8736 74.3236C52.388 75.1246 48.3376 77.6544 48.1134 77.7405C47.2653 78.0663 46.7773 77.5046 45.9847 77.4555C44.6931 77.3754 45.4309 75.3836 45.3321 74.59C45.3009 74.3394 45.0715 74.001 45.0847 73.7883C45.1015 73.5191 44.9237 73.388 44.7297 73.2746C43.3609 72.4747 43.8419 73.3221 42.9061 73.0714C42.6859 73.0124 42.4378 73.0823 42.2296 72.9327C41.8498 72.6599 41.4966 72.385 41.3088 71.9172C40.4809 69.854 33.2247 62.2149 32.8137 61.8287C32.0581 61.1185 30.7625 60.5418 30.2452 59.6715C29.2788 58.0455 30.4095 55.8873 29.9905 54.1576C29.7631 53.2187 29.9621 50.3277 29.6336 50.2257C29.3907 50.1504 29.4098 50.2633 28.0726 51.6792C27.3704 52.4227 25.5938 57.6731 22.3389 59.6966C22.247 59.7537 22.1807 59.8276 22.139 59.9285C21.8853 60.5421 21.5708 60.3881 21.0501 61.4319C20.7677 61.9978 20.5824 62.6163 20.1556 63.1058C20.1139 63.1536 20.0751 63.2147 20.0624 63.2753C19.9147 63.9821 18.595 65.222 18.3566 67.026C18.3496 67.0788 17.9367 72.8765 18.528 76.4899C18.6658 77.3321 18.5252 77.3742 19.6572 78.2143C20.2399 78.6468 20.7327 79.2276 20.7735 79.3477C21.0334 80.1128 21.6081 80.2266 21.8973 80.5315C23.7292 82.4619 25.3316 81.265 21.1156 84.5132C19.4262 85.8147 19.1522 84.2803 18.1881 84.2851C16.6114 84.2931 15.6793 82.2965 16.3275 81.0509C16.5756 80.5741 16.2469 80.3037 15.8758 79.9083C15.3307 79.3275 12.9638 79.4616 13.4019 76.766C13.4284 76.603 14.0585 64.9284 13.4633 62.2905C13.0376 60.4039 13.5836 58.6688 15.1528 57.3332C15.3796 57.1402 15.4621 56.8311 15.6479 56.596C18.304 53.236 20.1439 49.8898 18.6179 45.5739C18.4107 44.988 18.1265 43.0331 16.3113 40.1563C16.0608 39.7593 15.7748 39.3725 15.6681 38.8878C15.426 37.7887 14.8719 36.8063 14.452 35.7721C13.4772 33.3711 14.4539 29.783 12.7693 31.5113C10.8434 33.4873 4.90277 38.3601 2.7973 35.1435C1.20522 32.7101 4.86626 29.2266 7.08295 28.8674C8.4348 28.6483 8.68954 27.7649 13.7235 22.4016C15.1783 20.8518 18.0542 14.4313 28.9189 12.5101C38.1426 10.8791 60.6272 12.9875 67.0487 11.9125C71.7827 11.1199 77.539 10.4547 83.2865 12.9851ZM14.2586 26.6189C14.2002 26.1903 14.1372 26.1466 12.7332 27.6873C11.36 29.1942 11.7568 29.2872 10.9446 29.872C10.324 30.3188 10.4056 31.2733 10.6965 31.1033C10.9487 30.9558 11.4954 31.024 12.7011 29.507C12.9918 29.1412 13.4641 28.9563 13.7007 28.5373C14.6695 26.8214 14.0868 27.2357 14.2586 26.6189Z" fill="black"/>
</svg>
