<svg width="51" height="90" viewBox="0 0 51 90" fill="none" xmlns="http://www.w3.org/2000/svg">
<path d="M31.142 28.2697L31.1165 41.6467C31.9983 42.7037 33.9228 45.3515 35.081 49.4968C36.4439 54.3755 36.9816 62.3957 31.8024 72.8996C31.4059 73.6931 30.7964 74.3607 30.0421 74.8275C29.2877 75.2943 28.4184 75.542 27.5313 75.5428L25.6602 75.5392C24.6594 77.5392 22.222 83.2017 22.8956 89.8053L34.7378 89.8279C35.8683 87.1292 39.1412 78.7364 41.2184 67.464C42.6786 59.7143 43.2693 51.826 42.9795 43.9453C42.6303 35.513 41.1446 27.4946 38.5654 20.064L31.1578 20.0498C30.8782 20.0492 30.6037 19.9748 30.3622 19.834C30.1207 19.6932 29.9207 19.491 29.7825 19.248C26.5964 13.6461 21.1774 11.0685 16.8109 9.88273C16.1743 11.0535 15.5261 12.3571 14.8662 13.7935C18.8495 16.2158 23.8931 19.3031 27.4487 21.5511C28.5848 22.2646 29.5202 23.256 30.1664 24.4316C30.8127 25.6072 31.1485 26.9282 31.142 28.2697Z" fill="black"/>
<path d="M32.0609 16.8801L37.5066 16.8905C37.5067 16.8248 37.511 16.7591 37.5192 16.6939C37.9444 14.1666 38.9198 11.7636 40.3763 9.65488C40.6945 9.19418 41.0364 8.75036 41.4008 8.32524L38.0234 3.80446C37.0931 3.22984 33.2828 1.02535 29.6084 1.01832C26.4996 1.01238 24.2534 1.00808 21.723 3.19251C20.6549 4.11474 19.5823 5.39454 18.4847 7.06378C23.0884 8.45116 28.5244 11.2465 32.0609 16.8801ZM31.185 5.77847C31.4986 5.77907 31.805 5.87266 32.0654 6.0474C32.3259 6.22213 32.5286 6.47018 32.6481 6.76016C32.7676 7.05014 32.7984 7.36903 32.7366 7.67651C32.6748 7.98399 32.5233 8.26624 32.3011 8.48758C32.0789 8.70893 31.796 8.85941 31.4883 8.92001C31.1806 8.9806 30.8618 8.94859 30.5723 8.82802C30.2828 8.70745 30.0355 8.50373 29.8618 8.24263C29.688 7.98153 29.5956 7.67477 29.5962 7.36114C29.597 6.94059 29.7649 6.53758 30.0628 6.24077C30.3608 5.94396 30.7644 5.77767 31.185 5.77847Z" fill="black"/>
<path d="M2.4816 89.7664L19.7077 89.7993C18.961 81.5054 22.4234 74.7863 23.2057 73.3902C26.088 58.7207 20.3991 51.2167 20.341 51.1423C20.0797 50.8128 19.9599 50.3929 20.0081 49.9751C20.0563 49.5573 20.2686 49.1757 20.5981 48.9144C20.9276 48.653 21.3475 48.5333 21.7653 48.5815C22.1831 48.6297 22.5647 48.8419 22.826 49.1715C23.0922 49.5056 29.0742 57.2345 26.6107 72.3697L27.5374 72.3715C27.832 72.3719 28.1209 72.2904 28.3718 72.136C28.6226 71.9815 28.8256 71.7603 28.9579 71.4971C37.9494 53.2612 28.5027 43.4628 28.4061 43.3659C28.2592 43.2184 28.1427 43.0434 28.0634 42.8508C27.9841 42.6583 27.9435 42.452 27.9439 42.2438L27.9706 28.2638C27.9745 27.4587 27.7729 26.6659 27.3851 25.9604C26.9972 25.2549 26.4358 24.6599 25.754 24.2318C22.3241 22.0633 17.4903 19.1021 13.5782 16.7226C13.0692 17.9303 12.5505 19.217 12.0219 20.5826C8.83755 28.8167 7.27436 40.8762 7.50256 55.4572C7.59984 62.0879 8.04555 68.709 8.83785 75.2929C8.89157 75.6936 8.79033 76.0997 8.55481 76.4283L1.19731 86.6873C1.00414 86.9555 0.900207 87.2777 0.900212 87.6082L0.899123 88.1777C0.898791 88.598 1.06521 89.0014 1.36187 89.2992C1.65854 89.5971 2.06122 89.7651 2.4816 89.7664Z" fill="black"/>
<path d="M38.1661 89.8347L49.7814 89.8569C49.4542 88.9293 48.8479 88.1258 48.0459 87.5564C47.2439 86.9871 46.2853 86.6799 45.3017 86.6769L39.3623 86.6655C38.9099 87.9309 38.5021 88.9937 38.1661 89.8347Z" fill="black"/>
<path d="M50.1508 3.15869C48.0443 2.39213 45.1212 2.00796 41.5933 3.28425L43.7155 6.12435C45.6167 4.67498 47.8139 3.66241 50.1508 3.15869Z" fill="black"/>
</svg>
