<svg width="113" height="83" viewBox="0 0 113 83" fill="none" xmlns="http://www.w3.org/2000/svg">
<path d="M103.012 19.2095C102.495 17.4162 100.905 13.2256 96.8447 10.6354C95.5712 9.82303 94.318 9.17764 93.1693 8.66868C93.2622 8.22839 93.2984 7.77008 93.2688 7.3011C93.0853 4.40283 90.487 2.20837 87.4653 2.39965C84.7274 2.57297 82.5812 4.64544 82.3388 7.18903L71.0891 7.90117L56.7386 3.24898L43.1254 7.70169L35.9952 7.82269C35.237 7.83551 34.4903 7.77322 33.7759 7.63727C29.3085 6.78743 18.0415 5.51638 9.9344 12.05C4.63502 16.3208 1.83039 22.9848 1.59797 31.8563L1.59407 32.0223L1.6071 32.188C1.64029 32.6118 2.47444 42.6892 7.02887 53.2763C10.7843 62.0069 12.4771 68.1109 12.8164 69.3979L13.6226 82.1335L38.6459 80.5494L37.9345 69.3107L31.832 67.1406L32.561 58.9871C37.4127 59.2138 46.8147 59.2965 53.9549 57.1715L56.1208 63.6221L57.1183 79.3803L80.1986 77.9192L79.4752 66.492L73.029 63.8342C73.089 61.8158 73.2196 58.6063 73.4972 55.2493C74.2879 45.6864 75.5573 43.4454 75.78 43.1192C78.5515 41.0303 79.2374 41.0837 81.4501 41.2572C84.3234 41.4826 91.9944 38.8424 96.633 37.1203L105.51 36.7363L109.824 27.8169L103.012 19.2095Z" fill="black"/>
</svg>
