<svg width="123" height="49" viewBox="0 0 123 49" fill="none" xmlns="http://www.w3.org/2000/svg">
<path d="M117.11 13.2288C116.719 10.1062 112.913 5.9097 112.913 5.9097C111.645 -3.84908 108.326 1.4208 108.326 1.4208C104.325 -1.50728 104.91 5.22685 104.91 5.22685C99.2501 5.22685 82.5621 14.4009 72.1193 11.8631C61.677 9.3255 43.6229 11.5707 40.4996 12.7411C37.3764 13.9114 32.3998 12.5457 29.9601 14.7903C27.5204 17.0349 20.6891 18.4012 10.2465 24.1586C-0.194878 29.9168 0.000253309 35.1865 0.000253309 35.1865C9.36944 39.4803 38.2562 27.4769 38.2562 27.4769C38.2562 28.2579 38.8418 28.453 38.8418 28.453C36.1089 29.5264 33.474 32.6496 31.5227 32.9419C29.5705 33.2343 29.083 34.2104 29.083 34.2104C18.9338 46.4098 22.2516 46.2144 22.2516 46.2144C22.6421 47.7761 23.9104 46.7021 23.9104 46.7021C24.7884 46.8973 25.1788 47.1896 26.0577 44.7499C26.9366 42.3102 31.3276 35.5759 37.4763 35.4786C43.6242 35.3807 47.2351 33.2341 47.2351 33.2341C40.8912 39.3828 40.5016 36.2594 41.1845 39.7722C41.8673 43.285 45.1859 47.872 46.2608 48.653C47.3356 49.4338 53.579 48.653 53.579 48.653C52.5056 47.0913 49.2852 47.6121 49.2852 47.6121C49.2852 47.6121 48.6023 45.7245 47.333 44.3581C46.0645 42.9918 44.6982 38.8931 51.0412 38.2094C57.3841 37.5256 60.9951 32.6465 61.9712 31.0854C62.9473 29.5237 62.3617 27.1821 67.3392 29.6218C72.3165 32.0613 82.3685 32.5499 82.3685 32.5499C82.3685 32.5499 81.4907 33.9163 84.3207 37.8196C87.1509 41.7229 85.1017 42.4066 81.6859 42.2114C78.2703 42.0161 78.3682 45.3338 78.3682 45.3338C84.8093 46.505 83.0522 44.3577 87.2488 44.2607C91.4453 44.1636 90.3722 39.2834 89.4933 37.5272C88.6156 35.7703 88.2251 32.1594 88.2251 32.1594C88.2251 32.1594 93.007 30.9882 93.007 34.8924C93.007 38.7965 100.034 40.065 102.961 40.7479C105.889 41.4307 110.671 43.578 111.94 44.456C113.209 45.3338 116.137 48.6526 118.283 47.286C120.43 45.9196 121.113 44.0655 117.893 43.7732C114.672 43.4808 108.817 37.7225 106.864 37.2348C104.912 36.7473 100.423 33.2336 99.5454 32.6478C98.6676 32.0622 100.033 28.2561 100.619 26.6944C101.204 25.1327 108.622 17.3261 112.329 21.1315C116.037 24.9376 119.063 23.9615 117.99 23.0837C116.916 22.2057 113.534 18.1062 113.534 18.1062C120.497 23.7666 122.771 20.2535 122.185 19.7651C121.599 19.2794 117.5 16.3522 117.11 13.2288Z" fill="black"/>
</svg>
