<svg width="108" height="81" viewBox="0 0 108 81" fill="none" xmlns="http://www.w3.org/2000/svg">
<path d="M98.3223 33.3184C102.298 32.046 105.3 28.6185 105.939 24.3517L106.137 23.0229C106.345 21.6334 105.58 20.2803 104.283 19.7417L99.4524 17.7356C94.6592 9.87494 83.2046 10.2732 78.9061 18.2955L72.8702 29.5694C71.9698 31.2537 70.2955 32.3678 68.3964 32.5519C57.2504 33.63 42.2755 34.3677 24.5698 45.3971C18.547 49.1466 9.99919 45.0761 10.93 38.4749C11.5019 34.0206 5.91414 33.4828 4.97857 36.963C4.92246 37.1815 4.8901 37.4236 4.84841 37.7293C3.89578 44.2502 3.71368 49.489 5.77837 53.7848C8.14852 58.7165 13.0371 61.6274 21.1615 62.9478L68.1448 69.9789C69.2828 70.1492 67.8891 69.7254 71.7439 72.3754C77.0229 76.0007 83.1713 78.4207 89.5298 79.3723L91.4682 79.6624C94.3667 80.0961 96.1661 76.5737 94.1013 74.4824C91.3061 71.6511 88.3634 68.8407 86.1392 65.3133C90.7728 61.7548 93.9041 56.6728 94.9955 50.9062L98.3223 33.3184Z" fill="black"/>
</svg>
