<svg width="108" height="88" viewBox="0 0 108 88" fill="none" xmlns="http://www.w3.org/2000/svg">
<path d="M104.546 10.7923C103.888 10.6005 103.122 10.6117 102.566 10.2692C101.159 9.40359 99.4666 9.9392 98.037 9.17332C97.1478 8.69643 96.3216 8.25189 95.6185 7.47426C95.1676 6.97465 94.3367 6.81351 93.668 6.51817C93.4089 6.40342 93.1355 6.29522 92.858 6.25672C92.5275 6.21109 92.1316 6.13196 91.8596 6.26384C91.1309 6.61809 90.478 6.5946 89.8498 6.10674C89.1191 5.53878 88.4295 6.25672 87.7123 6.17432C87.6808 6.17027 87.5379 6.55687 87.5624 6.74612C87.7233 8.00988 87.3165 9.03432 86.4207 9.93458C86.1436 10.2134 86.068 10.6933 85.8731 11.1419C86.021 11.1608 86.171 11.1797 86.4349 11.2134C86.2638 11.8568 86.1097 12.4867 85.9265 13.1073C85.6948 13.8943 85.4515 14.6775 85.1891 15.4551C85.0262 15.9374 84.9424 15.9657 84.3941 15.8879C84.3298 16.7048 83.9629 17.3192 83.2243 17.7181C82.4854 18.118 82.2018 18.8178 82.3564 19.685C82.3786 19.8066 82.3658 20.0244 82.2985 20.0596C81.4215 20.5128 81.3809 21.3014 81.2655 22.1647C81.069 23.636 79.94 24.4522 78.7417 25.1325C78.2088 25.435 77.6607 25.7508 77.0777 25.9117C76.4429 26.0869 75.7627 26.1175 75.0991 26.1591C73.8469 26.2384 72.7394 25.734 71.5731 25.3578C70.1497 24.8982 69.1184 24.0451 68.1482 23.002C67.8554 22.6863 67.4717 22.4193 67.0807 22.2354C65.7224 21.5968 65.2817 20.1405 64.2905 19.1757C63.5012 18.4083 62.7857 17.5654 61.9373 16.648C62.337 16.4376 62.6055 16.2953 62.7942 16.1956C62.4704 15.824 62.1263 15.3889 61.7345 15.0017C61.604 14.8737 61.3543 14.8446 61.1525 14.8155C60.6818 14.7472 60.6795 14.7582 60.6716 14.114C60.9167 14.0959 61.1649 14.0772 61.4138 14.0589C61.4592 13.9954 61.5052 13.9324 61.5507 13.8697C60.2034 13.7871 59.9796 12.4636 59.084 11.9138C58.3884 11.4864 57.5927 11.2239 56.8455 10.8785C56.653 10.789 56.4163 10.7057 56.3043 10.5462C55.873 9.9367 55.3293 9.82753 54.6366 10.0004C53.4678 10.2919 52.3036 10.0428 51.2164 9.67832C50.2691 9.36104 49.3869 8.81195 48.5339 8.27383C48.2558 8.09786 47.9746 7.60769 48.0169 7.30696C48.112 6.64158 47.716 6.57092 47.4081 6.3603C47.2589 6.12849 47.0004 5.90073 46.9902 5.66277C46.9784 5.38226 47.1827 5.09404 47.3115 4.76097C47.2416 4.72959 47.0396 4.63852 46.7201 4.49393C46.9243 4.2292 47.1105 3.98739 47.3225 3.71323C46.8614 3.1162 46.3673 2.47528 45.8731 1.83416C45.423 2.45949 45.0728 2.41867 44.6494 1.83743C44.3706 1.45411 43.959 1.12334 43.5379 0.900396C43.1618 0.700745 42.6976 0.40868 42.2584 0.9106C42.1781 1.00167 41.8728 0.982798 41.7218 0.90906C41.0628 0.588501 40.4163 0.442564 39.6762 0.660891C39.3832 0.747336 39.0157 0.606598 38.6864 0.543064C37.9142 0.393855 37.1468 0.222505 36.3738 0.077146C36.2371 0.0513473 36.0833 0.0952438 35.941 0.125086C35.7831 0.158008 35.626 0.2587 35.4745 0.247726C34.5176 0.176106 33.564 0.0686753 32.6074 0.00263824C32.3577 -0.0146893 32.096 0.0567387 31.8471 0.117385C31.1141 0.297206 30.3852 0.492814 29.6838 0.674368C29.8715 1.01534 29.8017 1.25792 29.2368 1.2816C28.8315 1.29816 28.4301 1.39154 27.9965 1.45526C28.1095 1.76311 28.1756 1.94467 28.2416 2.12603C28.0468 2.19053 27.8521 2.2556 27.6563 2.31779C27.592 2.3382 27.5229 2.3407 27.4592 2.36188C26.8229 2.57943 26.2023 2.88902 25.5487 2.9951C24.7821 3.12005 24.3579 3.55362 24.0139 4.1726C23.8843 4.40518 23.7295 4.64622 23.5285 4.81353C22.6354 5.55515 21.5749 6.15121 20.8531 7.02856C20.0559 7.99794 18.7835 8.14176 17.9947 9.03085C17.9406 9.09208 17.8172 9.13848 17.7386 9.12346C16.7269 8.93575 16.0199 9.67717 15.1605 9.94036C14.2745 10.2122 13.3255 10.2727 12.4262 10.5099C11.6649 10.711 10.9133 10.9819 10.1992 11.3135C9.19615 11.7794 8.23158 12.3291 7.50479 12.7101C6.98246 13.9016 7.76875 15.1411 6.76645 15.896C5.70908 16.6917 5.35964 17.8583 4.76184 18.9131C4.43821 19.4859 3.96536 19.987 3.50117 20.4637C2.66367 21.3238 2.39587 22.4166 2.28671 23.5257C2.11458 25.271 1.97404 27.0307 2.0008 28.7808C2.02987 30.6698 2.24743 32.5576 2.41801 34.4428C2.5264 35.6376 2.34889 36.7193 1.49503 37.6328C1.35294 37.7853 1.20527 38.1442 1.28132 38.2543C1.66388 38.8065 1.43053 39.2597 1.23184 39.7922C1.00716 40.3939 0.934966 41.0529 0.920719 41.7348C1.0166 41.5298 1.11151 41.3247 1.20739 41.1207C1.24667 41.1324 1.28671 41.1441 1.32599 41.1561C1.15156 41.7866 0.975782 42.4168 0.804432 43.0482C0.770739 43.1747 0.694498 43.3877 0.741667 43.4229C1.57435 44.0457 1.08572 44.7825 0.970198 45.5043C0.929382 45.7596 0.980402 46.1281 1.14309 46.2985C1.66137 46.843 1.68891 46.817 1.67562 47.2985C1.7432 47.3072 1.81155 47.3158 1.87912 47.3245C2.00869 46.311 2.14924 45.2993 2.26091 44.2837C2.29941 43.9364 2.24839 43.5683 2.8485 43.6624C2.94592 45.3536 3.14076 47.0534 3.10687 48.7492C3.08319 49.9504 2.82886 51.1648 2.54123 52.3398C2.01736 54.4748 1.41166 56.5893 0.796538 58.7C0.638665 59.2427 0.237244 59.7173 0.0966987 60.2616C-0.0124647 60.6857 -0.0729185 61.3213 0.159463 61.6008C1.05972 62.6824 1.4854 63.9474 1.85621 65.2512C2.34793 66.9833 2.88681 68.7059 3.28824 70.4592C3.7014 72.2644 3.95207 74.1055 4.31094 75.9241C4.76724 78.2343 5.09877 80.5516 5.05564 82.9158C5.05006 83.1963 5.31094 83.5238 5.52695 83.7571C6.09106 84.3675 6.38543 84.9737 6.00307 85.8286C5.64497 86.6289 5.87504 87.0971 6.76433 87.1685C8.33536 87.2943 9.92063 87.295 11.4971 87.2644C11.9166 87.2565 12.3956 87.0216 12.7279 86.7469C13.0712 86.4641 12.9816 85.9974 12.5904 85.7727C12.1043 85.4939 11.5795 85.2165 11.0383 85.1129C9.44759 84.8097 8.66766 83.8012 8.27567 82.3172C8.11703 81.7161 7.7312 81.1782 7.51519 80.5875C7.23467 79.8201 6.90949 79.0439 6.79879 78.2443C6.44993 75.733 6.25605 73.1989 5.88043 70.6924C5.59915 68.8141 5.8144 66.9895 6.03831 65.1372C6.14747 64.2346 5.97785 63.3007 5.95744 62.3802C5.94724 61.9293 5.98729 61.4776 6.00769 61.0259C6.01559 60.8586 6.08625 60.6748 6.03985 60.5271C5.61417 59.1925 6.21254 58.0394 6.70349 56.8862C7.26124 55.5768 7.48977 54.2101 7.66574 52.8127C7.77491 51.943 8.02077 51.0884 8.24237 50.2369C8.29416 50.0374 8.49612 49.878 8.68133 49.6298C8.81494 49.8451 8.9476 49.9588 8.94529 50.0713C8.92257 51.2047 8.88714 52.3381 8.83689 53.4709C8.7928 54.4575 8.76065 55.4465 8.66015 56.4274C8.52885 57.7102 8.46377 59.0227 8.12358 60.2545C7.89813 61.0714 8.20136 61.6913 8.50209 62.2475C9.60893 64.2929 10.9915 66.2001 11.989 68.2927C13.3463 71.1394 14.461 74.1024 15.6487 77.0285C16.1718 78.3175 16.5804 79.6528 17.1216 80.9339C17.285 81.3205 17.6888 81.6268 18.032 81.9102C18.4656 82.2693 18.6628 82.6384 18.4868 83.2206C18.244 84.0226 18.4327 84.4437 19.233 84.4554C21.0578 84.4822 22.8849 84.3549 24.7112 84.281C24.8229 84.2764 24.9313 84.1986 25.0364 84.1568C25.2139 83.0791 24.6051 82.358 23.5299 82.3297C21.8826 82.2856 20.6926 81.5271 19.8836 80.0785C19.4719 79.3409 18.8066 78.7352 18.4508 77.979C17.8601 76.7229 17.3668 75.4136 16.9402 74.0915C16.2065 71.8167 15.5554 69.5151 14.8703 67.2253C14.8366 67.1114 14.7762 66.9912 14.7887 66.8805C14.9828 65.2105 14.2019 63.7007 14.0157 62.1062C13.7831 60.1149 13.22 58.1111 13.982 56.078C14.2335 55.4082 14.1924 54.6082 14.1886 53.8677C14.1807 52.4396 14.1281 51.0116 14.0465 49.5859C13.9939 48.6724 14.3553 47.9269 14.7887 47.1687C15.3865 46.1231 15.9624 45.0621 16.4847 43.9772C16.7973 43.327 16.9144 42.5785 17.2546 41.9468C17.8233 40.8896 17.7958 39.8409 17.3928 38.7805C17.1886 38.2439 17.2529 37.7859 17.3464 37.2299C17.5059 36.2818 17.3944 35.2888 17.3982 34.3148C17.399 34.1411 17.4084 33.9684 17.4148 33.7948C17.6379 33.8208 17.9042 33.7784 18.0753 33.8868C18.4995 34.1546 18.905 34.4642 19.2733 34.8052C21.3878 36.7572 23.6696 38.4782 26.262 39.7427C28.1937 40.6853 30.2689 41.1676 32.3679 41.6124C34.4462 42.0529 36.5272 42.0113 38.6181 42.0207C39.9024 42.0261 41.1868 42.0215 42.471 42.0207C42.5197 42.0207 42.574 42.0348 42.6155 42.0174C43.8308 41.5211 44.9627 42.199 46.1338 42.25C47.495 42.3089 48.9318 42.6759 50.1667 41.6751C50.246 41.6114 50.6561 41.7598 50.7 41.8848C50.8563 42.328 51.0284 42.8095 51.0001 43.2643C50.9137 44.6466 50.7323 46.023 50.5956 47.403C50.4888 48.4752 50.3026 49.5499 50.312 50.6221C50.3294 52.5836 49.9178 54.4688 49.4747 56.3525C49.2643 57.2472 48.8629 58.1074 48.7349 59.0092C48.6028 59.9337 48.6555 60.8929 48.7035 61.8332C48.8221 64.163 49.0789 66.4897 49.1016 68.8187C49.1243 71.1776 48.9642 73.5397 48.8228 75.897C48.7545 77.0375 48.5125 78.1663 48.4222 79.3061C48.3972 79.622 48.5408 80.0643 48.7686 80.266C49.4865 80.9037 49.4253 81.8715 48.7545 82.6343C47.9463 83.554 48.0797 84.1982 49.2549 84.4999C50.1197 84.7213 51.0333 84.782 51.9297 84.844C52.6004 84.8902 52.7914 85.06 52.5071 85.6678C52.2156 86.2906 52.3908 86.5367 53.0136 86.7667C54.3755 87.2687 55.7771 87.2891 57.1901 87.2837C57.8206 87.2814 58.4625 87.3568 59.0786 87.2635C59.7367 87.163 60.3707 86.9044 61.0249 86.7113C60.8068 85.4504 60.4115 85.0648 59.1824 84.9541C57.8769 84.8363 56.4543 83.2344 56.3836 81.936C56.3497 81.3163 56.2452 80.5943 55.8982 80.1189C55.2015 79.163 54.9988 78.097 54.8047 76.9965C54.353 74.4349 54.1195 71.8583 54.2169 69.2536C54.2695 67.8397 54.3727 66.4377 55.0348 65.1549C55.9402 63.4002 55.6653 61.5644 55.528 59.7127C55.4416 58.5518 55.5548 57.3758 55.5867 56.207C55.5923 56.0185 55.6803 55.8292 55.6716 55.643C55.5367 52.8096 56.157 50.0988 56.9002 47.3903C57.4146 45.5147 57.6905 43.5744 58.1899 41.6948C58.3174 41.2165 58.8129 40.6823 59.2748 40.4749C60.6181 39.8717 61.5137 38.8348 62.259 37.6596C62.6595 37.0281 63.1021 36.9722 63.7074 37.1607C64.8385 37.5119 65.9549 37.9289 67.1063 38.1913C68.3569 38.4765 69.6388 38.6295 70.9106 38.8157C71.736 38.9366 72.576 39.1363 73.3958 39.0845C74.816 38.9949 76.2232 38.705 77.6416 38.5573C80.7186 38.2362 83.1433 36.5456 85.5056 34.779C86.3423 34.1529 86.9187 33.1922 87.6956 32.4711C89.5762 30.7249 89.8848 28.1832 91.0198 26.0621C91.415 25.3245 92.0748 24.7134 92.1197 23.7825C92.1284 23.6012 92.5165 23.4385 92.7718 23.2335C92.5658 22.9412 92.1969 22.5084 93.0567 22.5492C93.1399 21.7777 93.0827 20.9938 93.843 20.4243C94.0796 20.2468 94.0652 19.6796 94.0896 19.2853C94.1409 18.4574 94.4069 18.2358 95.2271 18.1409C96.5263 17.99 97.8139 17.741 99.1088 17.551C99.6063 17.4778 100.119 17.4944 100.609 17.3923C100.897 17.3327 101.141 17.0907 101.424 16.9799C102.08 16.7247 102.733 16.438 103.416 16.2919C103.706 16.2299 104.079 16.4584 104.39 16.6076C104.963 16.8825 105.45 16.9988 106.04 16.526C106.436 16.2087 107.045 16.1648 107.544 15.9628C107.724 15.8899 107.991 15.7185 107.998 15.5803C108.076 14.0897 105.995 11.2141 104.546 10.7923Z" fill="black"/>
</svg>
