<svg width="94" height="101" viewBox="0 0 94 101" fill="none" xmlns="http://www.w3.org/2000/svg">
<path d="M84.2561 55.3014C84.0943 54.9974 84.0405 54.6553 84.2485 54.3677C84.6502 53.8136 84.5694 53.2409 84.4529 52.6253C84.3867 52.275 84.4752 51.8963 84.4936 51.5299C84.5053 51.3 84.581 51.0498 84.5156 50.8445C84.346 50.3129 84.1336 49.7919 83.903 49.2837C83.6135 48.6475 83.2895 48.0266 82.977 47.4005C82.6082 46.6602 82.2516 45.9123 81.8508 45.1891C81.7702 45.0433 81.5039 44.8987 81.3439 44.9187C80.9592 44.9673 80.5748 45.0837 80.2125 45.2289C79.7438 45.4168 79.3004 45.562 78.7662 45.5166C78.1615 45.4658 77.5185 45.4847 76.9364 45.6404C76.0837 45.868 75.287 46.3055 74.4349 46.539C73.6264 46.7602 73.0064 47.2034 72.4458 47.784C72.2922 47.9429 72.1198 48.0874 71.9411 48.2185C71.3477 48.6555 70.8826 49.193 70.5196 49.8387C70.2405 50.3356 69.9474 50.848 69.5563 51.2512C69.1715 51.6476 68.8838 52.0799 68.6462 52.5622C68.5716 52.7129 68.5154 52.873 68.4507 53.0287C68.136 52.8818 67.8503 52.7725 67.5899 52.62C67.3521 52.4803 67.0735 52.3377 66.9315 52.1187C66.5775 51.573 66.107 51.1665 65.5752 50.8238C65.1002 50.518 64.6828 50.169 64.3282 49.719C64.1404 49.4807 63.8164 49.3461 63.5473 49.1753C63.3515 49.051 63.1136 48.9774 62.9492 48.822C62.4993 48.398 62.0967 47.9232 61.6401 47.5074C61.3435 47.2365 61.008 46.9853 60.6477 46.816C60.4029 46.701 60.3308 46.6179 60.3943 46.361C60.587 45.5865 60.5748 44.8145 60.3562 44.0401C60.0966 43.1198 59.3103 42.4889 58.3739 42.4623C57.9568 42.4505 57.5002 42.4967 57.1335 42.3433C56.6558 42.1435 56.2191 41.8489 55.6897 41.7645C55.5975 41.7499 55.5069 41.6599 55.4356 41.586C54.9109 41.0403 54.3863 40.4948 53.874 39.9378C53.6839 39.7309 53.4926 39.6819 53.2194 39.7565C53.0185 39.8115 52.7863 39.8183 52.5803 39.7789C51.6742 39.6069 50.7737 39.404 49.8688 39.2234C49.0951 39.069 48.2445 39.1802 47.6113 38.5534C47.58 38.5224 47.5298 38.5034 47.4854 38.4938C47.0342 38.399 46.8632 38.1152 46.8589 37.6645C46.858 37.5368 46.7033 37.3267 46.5845 37.2984C45.9927 37.1576 45.3918 37.053 44.7902 36.9604C44.4601 36.9102 44.0994 36.8226 43.7931 36.904C43.1456 37.0763 42.5274 37.3554 41.8921 37.5765C41.6404 37.6644 41.4076 37.6482 41.336 37.3464C41.5202 37.1872 41.7536 37.0767 41.8345 36.898C42.0508 36.4172 41.4957 35.7131 40.9739 35.7831C40.7345 35.815 40.4887 35.8737 40.271 35.9748C39.8484 36.1711 39.4477 36.4157 39.0298 36.6233C38.5097 36.8815 37.9849 37.138 37.3253 37.0185C37.5848 36.4868 37.2214 36.2038 36.9087 35.9089C36.7657 35.7735 36.6042 35.6486 36.4311 35.5562C35.9712 35.3085 35.5047 35.2519 35.0371 35.5612C34.6502 35.8168 34.4502 35.7825 34.1268 35.4358C33.7322 35.0133 33.5959 34.9911 33.0608 35.2222C32.8698 35.3044 32.6551 35.4258 32.4669 35.4027C31.8191 35.3223 31.3816 35.6599 30.9476 36.052C30.6375 36.3325 30.3284 36.6235 29.982 36.8548C29.1958 37.38 28.3909 37.8781 27.5822 38.3671C27.4745 38.4325 27.2644 38.4392 27.1589 38.3768C26.6894 38.0975 26.4387 37.6378 26.337 37.1231C26.1421 36.1391 25.9615 35.1498 25.8321 34.1554C25.782 33.7722 25.8209 33.3498 25.9332 32.98C26.1902 32.1315 26.543 31.3119 26.8119 30.4666C27.3143 28.888 27.9874 27.3823 28.8617 25.9863C30.4107 23.5139 32.0136 21.0739 33.6306 18.645C34.6584 17.1012 35.4844 15.462 36.1924 13.7532C36.6876 12.5585 37.0612 11.3406 37.2301 10.0512C37.314 9.41057 37.5213 8.77815 37.7341 8.16331C38.3503 6.38418 37.9521 5.16656 36.3854 4.14934C36.1924 4.0237 36.0086 3.88281 35.8202 3.74924C35.4987 3.68481 35.1772 3.62037 34.855 3.55578C34.3927 3.60468 33.9266 3.6312 33.469 3.70761C32.853 3.81079 32.1998 3.83963 31.7131 4.31154C31.3847 4.63021 30.9969 4.7124 30.5573 4.71138C29.9509 4.70979 29.3428 4.71996 28.7385 4.76763C28.2047 4.80979 27.7049 4.98184 27.1965 5.37193C28.1733 5.82466 29.073 6.2621 29.9894 6.6615C31.0807 7.13719 32.0246 7.80498 32.765 8.73638C33.132 9.19772 33.4492 9.72076 33.4045 10.3306C33.3583 10.9566 33.2475 11.5856 33.0919 12.194C32.6872 13.7763 31.8541 15.1597 30.9847 16.5182C30.4505 17.3535 29.8203 18.132 29.343 18.9973C28.2875 20.9099 27.2544 22.8326 26.0066 24.6316C25.2826 25.6758 24.5281 26.7076 24.059 27.9019C23.5121 29.2944 22.9912 30.6966 22.4542 32.0931C22.1792 32.8092 22.0219 33.5695 21.5818 34.2233C21.3885 34.5101 21.26 34.8441 21.1292 35.1676C20.8281 35.9133 20.5442 36.6647 20.2538 37.4144C20.0189 38.5865 19.784 39.7584 19.5491 40.9305C19.5265 41.5334 19.5191 42.1379 19.4784 42.7397C19.3633 44.4637 19.5342 46.1658 19.8244 47.8625C19.8829 48.2041 19.8909 48.5568 19.8928 48.9048C19.8961 49.4457 19.832 50.0382 20.2584 50.4251C20.5778 50.715 20.6023 51.0232 20.6272 51.3812C20.7002 52.4355 20.4218 53.4287 20.0472 54.3892C19.6906 55.304 19.5454 56.2368 19.617 57.2039C19.7136 58.5171 19.8249 59.8296 19.9622 61.1398C19.9868 61.3749 20.1311 61.6241 20.2854 61.8137C20.9466 62.6278 21.6328 63.4222 22.3076 64.225C22.3523 64.2777 22.3844 64.3424 22.4135 64.4061C22.7 65.0347 23.1903 65.4763 23.8112 65.7188C25.003 66.1843 26.1215 66.8222 27.3517 67.195C27.5516 67.2555 27.7481 67.345 27.9279 67.4515C28.2563 67.6461 28.5782 67.8513 28.9017 68.0546C29.065 68.2155 29.2044 68.4002 29.3206 68.6152C29.1491 68.9291 28.9094 69.1913 28.6575 69.441C27.9727 70.1187 27.1416 70.529 26.2142 70.7608C25.2617 70.9983 24.2904 71.0662 23.3142 71.073C22.0502 71.082 20.786 71.0689 19.5225 71.0722C18.466 71.0749 17.4278 71.2419 16.3944 71.4429C15.0591 71.7026 13.7264 71.9782 12.3867 72.2153C11.347 72.3997 10.2948 72.4414 9.24283 72.3132C8.92748 72.2747 8.61755 72.1905 8.30373 72.1351C8.2129 72.1195 8.10409 72.1021 8.0261 72.1365C7.43566 72.3973 6.81053 72.4228 6.18122 72.4313C5.93051 72.435 5.68001 72.4462 5.42966 72.4544C4.73681 72.4787 4.16771 72.7726 3.67825 73.2482C3.19878 73.715 2.87546 74.2836 2.60908 74.8871C2.24959 75.7029 2.01181 76.5594 1.80201 77.4231C1.53431 78.5212 1.27936 79.6226 1.01224 80.721C0.939344 81.0211 0.836426 81.3134 0.757971 81.6125C0.735293 81.7 0.720744 81.8075 0.751609 81.8879C1.10928 82.8391 1.50964 83.7704 2.11851 84.5951C2.63854 85.2995 3.26044 85.8768 4.10803 86.1693C4.13288 86.178 4.15154 86.2052 4.17261 86.2234C4.43805 86.2766 4.70348 86.3298 4.96816 86.3829C5.13007 86.376 5.29325 86.379 5.45427 86.361C5.80668 86.3224 6.15827 86.2748 6.51694 86.2299C6.544 85.9428 6.46662 85.7274 6.2892 85.568C6.12637 85.4212 5.94014 85.2957 5.7504 85.1845C5.50957 85.0436 5.24777 84.9373 5.00816 84.7941C4.85345 84.7015 4.70699 84.5831 4.58292 84.4525C4.40751 84.2668 4.35963 84.0307 4.39886 83.7783C4.41223 83.7652 4.42421 83.7435 4.43949 83.7401C5.19029 83.5974 5.68638 83.0756 6.18394 82.5597C6.24232 82.4997 6.26372 82.3898 6.27353 82.2997C6.34773 81.5841 6.28335 80.8731 6.17955 80.1656C6.06424 79.3828 5.93358 78.6028 5.82006 77.8204C5.78402 77.5725 5.79044 77.3193 5.7641 77.0705C5.74703 76.9089 5.82679 76.843 5.96344 76.8039C6.23389 76.7272 6.50024 76.782 6.76595 76.8269C7.1366 76.8898 7.50418 76.9812 7.87712 77.0203C8.09159 77.0429 8.32995 77.031 8.53041 76.959C10.8267 76.1278 13.208 75.7184 15.6307 75.518C17.8255 75.336 20.0246 75.323 22.2244 75.404C23.1889 75.4399 24.1527 75.4845 25.1166 75.533C25.2578 75.5405 25.3784 75.5189 25.5019 75.4505C26.2417 75.0396 27.0476 74.8914 27.878 74.9532C28.7627 75.0193 29.6423 75.1589 30.5257 75.2407C31.0721 75.2913 31.6237 75.32 32.1721 75.3131C32.8439 75.305 33.469 75.0863 34.0249 74.7193C34.5068 74.4007 34.9598 74.0372 35.4145 73.6785C36.0205 73.2003 36.6084 72.6992 37.2186 72.2262C37.4064 72.0805 37.6425 71.9983 37.8526 71.8806C37.9913 71.8036 38.0966 71.8279 38.2135 71.9358C38.7545 72.4376 39.3664 72.8389 40.016 73.1856C40.8192 73.6144 41.6632 73.9434 42.5311 74.2144C44.1387 74.7169 45.7848 75.0538 47.4421 75.3396C47.9181 75.4217 48.3919 75.516 48.8687 75.5969C49.0086 75.6205 49.1205 75.674 49.2167 75.7801C49.6382 76.2447 50.0651 76.7048 50.488 77.169C50.8854 77.6053 51.3049 78.0174 51.795 78.3517C51.8827 78.4118 51.9677 78.4815 52.0646 78.5201C52.4621 78.6771 52.7066 78.9964 52.9532 79.3207C53.6804 80.2774 54.3229 81.2897 54.857 82.3638C55.5583 83.7729 56.2283 85.1981 56.8994 86.6221C57.5707 88.0469 58.2487 89.4679 59.0768 90.811C59.8825 92.1173 60.8179 93.3171 61.9654 94.3428C62.0676 94.4344 62.1509 94.5285 62.1868 94.6695C62.4639 95.7602 63.1217 96.5819 64.0188 97.2288C64.9444 97.896 65.9857 98.285 67.1014 98.4908C68.6509 98.7767 70.1773 98.7138 71.6641 98.1588C72.5491 97.8284 73.3194 97.3285 73.903 96.5703C74.1451 96.2552 74.3604 95.9252 74.4637 95.534C74.4747 95.4911 74.5125 95.455 74.538 95.4162C74.5569 95.3215 74.576 95.2263 74.5949 95.1319C74.0913 94.9377 73.5715 94.9592 73.052 95.0345C72.5553 95.1064 72.0638 95.2123 71.5656 95.2722C71.1365 95.324 70.7017 95.3593 70.2698 95.3539C69.5633 95.345 69.1006 94.9464 68.9311 94.2441C69.0827 94.1113 69.2652 94.1252 69.4463 94.1524C69.7993 94.2056 70.1511 94.2715 70.5054 94.3177C70.6264 94.3338 70.7617 94.3304 70.8744 94.2909C70.9749 94.2552 71.0727 94.1714 71.1355 94.083C71.2438 93.9296 71.2252 93.877 71.0681 93.7452C70.615 93.3657 70.1202 93.0475 69.5955 92.7775C68.4082 92.1663 67.1359 91.8135 65.8356 91.5478C65.5613 91.4916 65.2859 91.437 65.0087 91.3948C64.8634 91.3727 64.768 91.3078 64.6821 91.1884C64.0927 90.3704 63.6078 89.4908 63.1545 88.5925C62.4182 87.1338 61.8094 85.6181 61.1795 84.1122C60.8812 83.3994 60.5636 82.6948 60.2402 81.9935C60.132 81.7579 59.9817 81.5413 59.8431 81.3211C59.7978 81.2492 59.7325 81.1859 59.666 81.1315C59.4847 80.982 59.3389 81.0024 59.2015 81.1944C59.152 81.2639 59.113 81.3418 59.0498 81.4483C58.9691 81.3598 58.8987 81.2872 58.8336 81.2101C58.2019 80.4583 57.7793 79.5898 57.4926 78.6618C57.2141 77.7589 56.9822 76.8411 56.7431 75.9255C56.5137 75.0469 56.3044 74.1628 55.9522 73.3231C55.7921 72.9413 55.5854 72.5788 55.415 72.2008C55.3307 72.0137 55.1963 71.9658 55.0068 71.9488C54.1933 71.8758 53.4031 71.7042 52.6644 71.3403C52.2976 71.1596 51.963 70.9325 51.7073 70.6059C51.525 70.372 51.4064 70.1185 51.3623 69.8348C51.6669 69.8285 51.9714 69.8173 52.275 69.7962C53.2939 69.7256 54.282 69.8144 55.2612 70.071C56.4381 70.3794 57.6071 70.7215 58.7909 71.002C59.2146 71.1021 59.6882 71.155 60.1078 71.0724C60.7327 70.9494 61.3497 70.7304 61.9343 70.4732C62.8001 70.092 63.6183 69.6005 64.4912 69.2385C64.8947 69.0713 65.0688 68.8422 65.163 68.4523C65.2882 67.9316 65.5904 67.7943 66.0799 67.9907C66.1662 68.0258 66.2522 68.0646 66.3339 68.1101C66.8731 68.4093 67.4445 68.4926 68.0568 68.4301C68.5272 68.3822 69.0045 68.4094 69.4764 68.3731C69.5628 68.3665 69.6655 68.2245 69.7075 68.1225C69.736 68.0534 69.6474 67.9444 69.6533 67.8553C69.6619 67.7136 69.6679 67.4846 69.7429 67.4525C69.8878 67.3921 70.0847 67.419 70.2502 67.4553C70.3815 67.4841 70.4908 67.5999 70.6212 67.643C70.9221 67.7435 71.218 67.7659 71.4653 67.5033C71.7086 67.2455 71.7721 66.9638 71.6135 66.6375C71.5622 66.5327 71.4911 66.4187 71.4937 66.3108C71.4975 66.1657 71.5188 65.9738 71.6118 65.8864C71.9524 65.5676 72.3204 65.2771 72.689 64.9898C73.0259 64.7274 73.4252 64.6156 73.8414 64.67C73.9879 64.6892 74.1419 64.8456 74.241 64.9779C74.3188 65.081 74.2918 65.2571 74.3575 65.3757C74.4344 65.5148 74.5605 65.6259 74.6659 65.7497C74.7776 65.6356 74.9196 65.538 74.993 65.4029C75.0692 65.2639 75.054 65.0768 75.1238 64.9334C75.18 64.8183 75.287 64.6957 75.4013 64.6476C76.0114 64.3905 76.6498 64.1941 77.2406 63.8999C77.6852 63.6793 78.0581 63.3193 78.4882 63.0642C79.2265 62.6256 80.0654 62.5875 80.8937 62.5396C81.4369 62.5083 81.5784 62.378 81.5231 61.8313C81.4964 61.5657 81.4386 61.2996 81.3617 61.0439C81.2625 60.7149 81.3831 60.5252 81.6876 60.4245C81.8087 60.3847 81.9341 60.3571 82.0578 60.3254C82.4488 60.2266 82.7488 60.0438 82.9243 59.6403C83.1005 59.2359 83.3523 58.863 83.5825 58.4834C83.8934 57.9714 84.1754 57.4123 84.9242 57.4855C84.9467 57.4874 84.97 57.4852 84.9929 57.4847C85.0252 57.3236 85.0574 57.1632 85.0897 57.002C84.9732 56.7025 84.8772 56.3934 84.7353 56.1066C84.6006 55.8312 84.4035 55.579 84.2561 55.3014Z" fill="black"/>
</svg>
