<svg width="113" height="114" viewBox="0 0 113 114" fill="none" xmlns="http://www.w3.org/2000/svg">
<path d="M47.9326 63.0087C45.6396 60.486 42.1465 59.3303 39.3879 61.7236C34.8847 66.3735 37.2551 77.8409 38.5588 79.5429C39.1077 79.4537 39.4609 66.0049 40.7719 64.7701C42.0719 63.5238 45.041 62.1928 47.9326 63.0087Z" fill="black"/>
<path d="M47.866 70.0176C49.2339 68.7453 56.0177 70.0756 54.6808 69.1305C53.3416 68.1921 48.3961 64.0386 45.462 67.5361C42.5279 71.0382 45.9002 82.7451 47.4022 83.9698C47.7602 83.0259 46.498 71.2899 47.866 70.0176Z" fill="black"/>
<path d="M53.4234 75.5275C51.0626 78.4853 53.5281 87.0285 55.3043 87.9866C55.5562 86.7414 54.638 78.4408 56.4782 76.4426C58.3184 74.4443 62.8409 74.5235 61.9838 73.7654C61.1245 73.0006 55.7797 72.5695 53.4234 75.5275Z" fill="black"/>
<path d="M62.7926 48.5553C62.0603 45.6442 63.4718 42.7113 64.745 41.4467C66.0205 40.1798 79.4718 40.1881 79.5785 39.6532C77.9093 38.2977 66.5105 35.609 61.7386 39.9778C59.2756 42.6705 60.326 46.1969 62.7926 48.5553Z" fill="black"/>
<path d="M67.0195 46.5702C63.4388 49.4073 67.4497 54.4695 68.3548 55.8301C69.2552 57.1996 68.1225 50.3745 69.4349 49.0406C70.7429 47.7066 82.4364 49.3085 83.3923 48.9703C82.208 47.4323 70.6002 43.7376 67.0195 46.5702Z" fill="black"/>
<path d="M74.3688 55.157C71.3413 57.4339 71.6292 62.7865 72.3651 63.6669C73.1011 64.5472 73.1532 60.0288 75.1933 58.2407C77.2424 56.4528 85.5094 57.6078 86.7657 57.391C85.8646 55.5865 77.3915 52.8891 74.3688 55.157Z" fill="black"/>
<path d="M38.6354 52.3818C38.6354 52.3818 37.615 49.2841 37.6676 48.1037C34.508 49.2022 30.3402 47.2887 30.3402 47.2887C30.3402 47.2887 31.6963 31.1087 19.1338 31.6854C24.1964 35.0449 24.8946 40.2207 22.3641 41.6187C19.8358 43.0235 9.35335 33.3356 12.0036 28.2158C1.11747 38.8009 18.4849 48.0669 22.2457 49.4247C26.0065 50.7824 38.6354 52.3818 38.6354 52.3818Z" fill="black"/>
<path d="M46.9413 31.1467C46.9413 31.1467 48.7349 35.3687 47.546 38.4985C48.7296 38.4768 51.7975 39.5837 51.7975 39.5837C51.7975 39.5837 50.5529 26.9149 49.3011 23.1175C48.0539 19.3156 39.2761 1.69748 28.3877 12.2848C33.5844 9.77468 42.9723 20.5269 41.4994 23.0126C40.0288 25.5006 34.8722 24.6642 31.6629 19.5028C30.7274 32.0508 46.9413 31.1467 46.9413 31.1467Z" fill="black"/>
<path d="M94.7423 85.0393C93.6155 85.9881 89.0096 84.9454 85.7104 81.8495C82.4068 78.7491 72.8666 70.1766 69.2973 63.5203C69.2973 63.5203 60.025 48.7036 57.4868 46.4727C52.301 46.1092 52.301 46.1092 52.301 46.1092C52.301 46.1092 55.4776 44.2875 53.1588 42.0033C50.8399 39.7191 45.6622 38.9433 43.6914 40.9397C43.5159 40.1145 43.2959 33.7756 39.2365 36.3581C42.0474 37.4613 42.0568 41.2932 41.1006 41.974C40.1444 42.6548 37.5177 42.2348 35.0342 40.4441C33.9128 44.3841 38.6934 43.9056 39.7573 43.898C37.9866 46.4066 38.9069 51.8245 40.8355 53.3278C42.7662 54.838 45.5673 52.3055 45.5673 52.3055C45.5673 52.3055 45.6674 54.0087 45.357 57.978C47.0982 59.508 58.8476 68.0529 61.3356 70.0037C61.3512 70.0151 61.3737 70.02 61.3893 70.0315C84.2354 87.218 91.5676 88.6596 94.8861 88.447C99.4901 88.1802 104.203 78.383 92.4039 78.3641C95.7538 80.0948 96.6886 83.3513 94.7423 85.0393Z" fill="black"/>
</svg>
